# xmcd
#
# Track frame offsets:
#	150
#	18056
#	36956
#	52111
#	77748
#	91788
#	109999
#	132717
#	154858
#	170383
#	189201
#	201437
#	223316
#	241434
#	260927
#	271960
#	293717
#	307140
#	321497
#	340360
#
# Disc length: 4791 seconds
#
# Revision: 0
# Processed by: cddbd v1.5.2PL0 Copyright (c) Steve Scherf et al.
# Submitted via: audiograbber 1.83.01
#
DISCID=3a12b514
DTITLE=Various Artist - Rock Romantics CD1
DYEAR=2013
DGENRE=
TTITLE0=Phil Carmen\\n - On My Way In L.A.\\n
TTITLE1=America\\n - A Horse With No Name\\n
TTITLE2=Foreigner\\n - Cold As Ice\\n
TTITLE3=The Moody Blues\\n - Nights In White Satin\\n
TTITLE4=John Bongiovi\\n - For You\\n
TTITLE5=Procol Harum\\n - A Whiter Shade Of Pale\\n
TTITLE6=10cc\\n - Dreadlock Holiday\\n
TTITLE7=The Steve Miller Band\\n - Wild Mountain Honey\\n
TTITLE8=Jimi Hendrix\\n - Hey Joe\\n
TTITLE9=The Guess Who\\n - Sour Suite\\n
TTITLE10=Creedence Clearwater Revival\\n - Who'll Stop The Rain\\n
TTITLE11=Jefferson Starship\\n - Sara\\n
TTITLE12=Art Garfunkel\\n - Bright Eyes\\n
TTITLE13=Gary Wright\\n - Dream Weaver\\n
TTITLE14=Crosby and Nash\\n - Naked In The Rain\\n
TTITLE15=Electric Light Orchestra\\n - Whisper In The Night\\n
TTITLE16=Eric Burdon and The Animals\\n - I Put A Spell On You\\n
TTITLE17=James Taylor\\n - Rainy Day Man\\n
TTITLE18=Shirley Bassey\\n - All By Myself\\n
TTITLE19=Heart\\n - These Dreams\\n
EXTD=
EXTT0=
EXTT1=
EXTT2=
EXTT3=
EXTT4=
EXTT5=
EXTT6=
EXTT7=
EXTT8=
EXTT9=
EXTT10=
EXTT11=
EXTT12=
EXTT13=
EXTT14=
EXTT15=
EXTT16=
EXTT17=
EXTT18=
EXTT19=
PLAYORDER=
